<svg xmlns="http://www.w3.org/2000/svg" width="47.469" height="33.344" viewBox="0 0 47.469 33.344">
  <defs>
    <style>
      .cls-1 {
        fill: #c5d92d;
        fill-rule: evenodd;
      }
    </style>
  </defs>
  <path class="cls-1" d="M37.33,3.924c8.111,4.012,15.32,16.151,7.948,24.28a5.114,5.114,0,0,1-4.107,1.945c-5.917-.626-4.876-11.1-5.387-15.063C35.49,12.8,34.156,8.957,31.152,9.508c-4.389.806-2.525,6.854-1.662,9.638,1.336,4.31,3.769,9.76-.252,13.519a6.225,6.225,0,0,1-8.757-.65,9.338,9.338,0,0,1-1.7-5.04,31.976,31.976,0,0,1,.616-8.623,6.543,6.543,0,0,0-.852-4.685c-2.331-3-4.23,1.1-4.642,3.11-1.024,4.994,2.3,11.074-1.92,15.209a5.464,5.464,0,0,1-7.856-.154A14.268,14.268,0,0,1,.933,23.48,15.86,15.86,0,0,1,5.686,11.256c2.819-2.891,5.628-5.689,9.2-7.485A30.65,30.65,0,0,1,26.535.841C30.528,0.555,33.83,2.192,37.33,3.924Z" transform="translate(-0.875 -0.813)"/>
</svg>
