<svg xmlns="http://www.w3.org/2000/svg" width="129.625" height="108.094" viewBox="0 0 129.625 108.094">
  <defs>
    <style>
      .cls-1 {
        fill: #ffa78d;
        fill-rule: evenodd;
      }
    </style>
  </defs>
  <path id="Shape_6_copy" data-name="Shape 6 copy" class="cls-1" d="M1.367,78.034a10.2,10.2,0,0,0,5.412,5.279c8.48,4.068,19.461,1.471,27.086,6.966,2.7,1.942,4.652,4.7,6.78,7.25,3.6,4.305,7.975,8.2,13.317,9.961s11.782,0.986,15.733-3c2.092-2.111,3.365-4.945,5.579-6.93,4.1-3.681,10.4-3.572,15.731-2.12s10.386,4.023,15.879,4.6a21.755,21.755,0,0,0,17.655-6.25,19.9,19.9,0,0,0,5.191-17.805c-0.874-3.954-3-7.533-4.03-11.45-2.568-9.779,1.967-20.359-.544-30.153-2.162-8.432-9.725-15.081-18.309-16.729-8.438-1.621-17.647,1.091-25.5-2.382-3.617-1.6-6.556-4.365-9.7-6.756-9.737-7.4-23.617-11.244-34.271-5.228a28.57,28.57,0,0,0-9.929,9.98c-6.576,10.572-5.02,24.1-11.945,34.117C9.795,55.634-2.87,66.544,1.367,78.034Z" transform="translate(-0.531 -0.313)"/>
</svg>
