<svg xmlns="http://www.w3.org/2000/svg" width="110.875" height="56.094" viewBox="0 0 110.875 56.094">
  <defs>
    <style>
      .cls-1 {
        fill-rule: evenodd;
      }
    </style>
  </defs>
  <path class="cls-1" d="M25.286,32.8A65.658,65.658,0,0,1,57.306,15.184c28.592-6.531,53.9,6.093,54.095,6.236l-0.756,1.012-0.715,1.042C109.706,23.333,83.1,10.7,55.164,18.335,36.437,23.454,21.646,36.393,11.2,56.79L8.947,55.626A88.226,88.226,0,0,1,25.286,32.8ZM105.811,3.85l2.354,0.95L102.68,18.567l-2.354-.949ZM84.358,0.7L86.87,1.032c-0.573,4.454-1.31,8.945-2.189,13.346L82.2,13.869C83.065,9.525,83.792,5.092,84.358.7ZM53.69,3.082l2.447-.644c1.149,4.29,2.5,8.59,4.008,12.783l-2.383.848C56.227,11.809,54.856,7.44,53.69,3.082ZM27.183,14.655l2.144-1.34A74.193,74.193,0,0,0,37.14,23.632l-1.874,1.694A76.875,76.875,0,0,1,27.183,14.655ZM10,29.357a68.466,68.466,0,0,1,11.733,7.666l-1.589,1.964a65.9,65.9,0,0,0-11.3-7.379ZM1.328,45.651a57.3,57.3,0,0,1,11.4,5.322L11.42,53.135A54.821,54.821,0,0,0,.526,48.05Z" transform="translate(-0.531 -0.688)"/>
</svg>
