<svg xmlns="http://www.w3.org/2000/svg" width="29.375" height="31.719" viewBox="0 0 29.375 31.719">
  <defs>
    <style>
      .cls-1 {
        fill: #8a53ff;
        fill-rule: evenodd;
      }
    </style>
  </defs>
  <path class="cls-1" d="M5.781,26.529c-1.742-1.042-3.651-1.963-4.857-3.6s-1.359-4.287.293-5.468a3.6,3.6,0,0,1,3.848.046,7.477,7.477,0,0,1,2.608,3.07,2.7,2.7,0,0,0,1.673,1.726,1.627,1.627,0,0,0,1.648-1.563,3.625,3.625,0,0,0-.862-2.338,10.034,10.034,0,0,0-2.264-2.238c-1.427-1.019-3.21-1.757-3.979-3.336A3.583,3.583,0,0,1,4.849,8.59a3.557,3.557,0,0,1,4.337.039c1.249,1.028,1.616,2.748,2.24,4.242,0.552,1.321,1.907,2.717,3.191,2.091a2.463,2.463,0,0,0,1.11-2.194C15.84,10.135,14.268,7.629,14.466,5a5.194,5.194,0,0,1,1.727-3.547A4.176,4.176,0,0,1,19.97.568a4.89,4.89,0,0,1,3.192,4.255,10.5,10.5,0,0,1-1.2,5.448c-0.792,1.707-1.776,3.332-2.4,5.109-0.282.807-.151,2.093,0.7,2.033a1.385,1.385,0,0,0,.894-0.66L23.039,14.3a3.688,3.688,0,0,1,2.91-1.531A3.318,3.318,0,0,1,29.1,14.986c0.81,2.1-.339,4.691-1.772,6.111A7.039,7.039,0,0,1,22.7,23.049a18.427,18.427,0,0,0-5.156.488c-0.851.3-1.757,1.16-1.345,1.963a1.412,1.412,0,0,0,.894.637c1.487,0.437,3.027-.322,4.464-0.9s3.251-.939,4.4.1a3.066,3.066,0,0,1,.9,1.913A4.585,4.585,0,0,1,21.775,32.1a14.04,14.04,0,0,1-2.566-.915,11.566,11.566,0,0,0-6.458-.531c-2.182.451-2.465,0.646-3.594-1.127A9.814,9.814,0,0,0,5.781,26.529Z" transform="translate(0 -0.438)"/>
</svg>
