<svg xmlns="http://www.w3.org/2000/svg" width="91" height="85" viewBox="0 0 91 85">
  <defs>
    <style>
      .cls-1 {
        fill: #fff;
        stroke: #000;
        stroke-linejoin: round;
        stroke-width: 2px;
        fill-rule: evenodd;
      }
    </style>
  </defs>
  <path class="cls-1" d="M53.564,79.161a2.623,2.623,0,0,1-2.4-1.572C41.868,56.3,32.677,34.62,23.844,13.158a2.62,2.62,0,0,1,4.851-1.984C37.513,32.6,46.689,54.246,55.967,75.5A2.618,2.618,0,0,1,53.564,79.161Zm18.677-9.4a2.615,2.615,0,0,1-1.776-.692C51.977,52.08,28.369,42.028,5.539,32.307A2.615,2.615,0,1,1,7.6,27.5C30.837,37.4,54.866,47.627,74.019,65.23A2.613,2.613,0,0,1,72.242,69.765ZM20.151,83a2.615,2.615,0,0,1-2.181-4.06,296.381,296.381,0,0,0,35.923-74.8,2.62,2.62,0,0,1,5,1.577A301.619,301.619,0,0,1,22.336,81.832,2.622,2.622,0,0,1,20.151,83ZM4.988,63.512a2.613,2.613,0,0,1-1.315-4.876c15.75-9.079,33.146-15.081,49.969-20.884,10.39-3.584,21.134-7.291,31.326-11.673a2.614,2.614,0,1,1,2.075,4.8c-10.37,4.459-21.207,8.2-31.687,11.813C38.766,48.414,21.613,54.332,6.3,63.161A2.623,2.623,0,0,1,4.988,63.512Z"/>
</svg>
