<svg xmlns="http://www.w3.org/2000/svg" width="105" height="99" viewBox="0 0 105 99">
  <defs>
    <style>
      .cls-1 {
        fill: #fff;
        stroke: #000;
        stroke-linejoin: round;
        stroke-width: 2px;
        fill-rule: evenodd;
      }
    </style>
  </defs>
  <path id="Shape_5_copy" data-name="Shape 5 copy" class="cls-1" d="M62,91.942a3.056,3.056,0,0,1-2.8-1.834C48.37,65.276,37.661,39.994,27.369,14.962a3.053,3.053,0,0,1,5.652-2.313C43.3,37.64,53.987,62.884,64.8,87.677A3.053,3.053,0,0,1,62,91.942ZM83.76,80.984a3.045,3.045,0,0,1-2.069-.807C60.148,60.358,32.642,48.634,6.041,37.3a3.049,3.049,0,1,1,2.4-5.606c27.076,11.54,55.073,23.474,77.39,44A3.048,3.048,0,0,1,83.76,80.984ZM23.066,96.418a3.049,3.049,0,0,1-2.542-4.735A345.81,345.81,0,0,0,62.38,4.441,3.053,3.053,0,0,1,68.2,6.281,351.937,351.937,0,0,1,25.612,95.057,3.054,3.054,0,0,1,23.066,96.418ZM5.4,73.69A3.047,3.047,0,0,1,3.867,68c18.352-10.589,38.62-17.589,58.221-24.357,12.106-4.181,24.624-8.5,36.5-13.614a3.049,3.049,0,1,1,2.418,5.6c-12.082,5.2-24.709,9.56-36.92,13.777C44.756,56.081,24.769,62.984,6.925,73.281A3.053,3.053,0,0,1,5.4,73.69Z"/>
</svg>
