<svg id="Logo" xmlns="http://www.w3.org/2000/svg" width="301.938" height="37.406" viewBox="0 0 301.938 37.406">
  <defs>
    <style>
      .cls-1 {
        fill: #fff;
      }

      .cls-2 {
        fill: #ffc900;
      }

      .cls-2, .cls-3, .cls-4, .cls-5, .cls-6 {
        fill-rule: evenodd;
      }

      .cls-3 {
        fill: #03cd69;
      }

      .cls-4 {
        fill: #fa4238;
      }

      .cls-5 {
        fill: #8a53ff;
      }
    </style>
  </defs>
  <circle class="cls-1" cx="49" cy="24.969" r="11"/>
  <path class="cls-2" d="M42,15.819h4.134V33.181H42V15.819Z" transform="translate(0 -0.031)"/>
  <path id="Rectangle_2_copy" data-name="Rectangle 2 copy" class="cls-3" d="M46.134,15.819h4.134V33.181H46.134V15.819Z" transform="translate(0 -0.031)"/>
  <path id="Rectangle_2_copy_2" data-name="Rectangle 2 copy 2" class="cls-4" d="M50.267,15.819H54.4V33.181H50.267V15.819Z" transform="translate(0 -0.031)"/>
  <path id="Rectangle_2_copy_3" data-name="Rectangle 2 copy 3" class="cls-5" d="M54.4,15.819h4.134V33.181H54.4V15.819Z" transform="translate(0 -0.031)"/>
  <path id="ColorWonder" class="cls-6" d="M16.726,37.385c8.151,0,14.6-4.8,16.151-12h-5.2c-1.35,4.45-5.55,7.3-10.851,7.3-7.3,0-12.1-5.5-12.1-13.951s4.8-13.951,12.1-13.951c5.25,0,9.3,2.85,10.651,7.55h5.25c-1.35-7.4-7.6-12.251-15.751-12.251-10.351,0-17.4,7.55-17.4,18.7C-0.425,29.984,6.425,37.385,16.726,37.385Zm19.6-12.8c0,7.551,5.4,12.851,12.751,12.851,7.3,0,12.7-5.3,12.7-12.851s-5.4-12.851-12.7-12.851C41.725,11.733,36.325,17.034,36.325,24.584Zm4.75,0c0-5.1,3.25-8.65,8-8.65,4.7,0,8,3.55,8,8.651s-3.3,8.651-8,8.651C44.325,33.235,41.075,29.684,41.075,24.584Zm30.65,12.251V0.033h-4.7v36.8h4.7Zm5.6-12.251c0,7.551,5.4,12.851,12.751,12.851,7.3,0,12.7-5.3,12.7-12.851s-5.4-12.851-12.7-12.851C82.725,11.733,77.325,17.034,77.325,24.584Zm4.75,0c0-5.1,3.25-8.65,8-8.65,4.7,0,8,3.55,8,8.651s-3.3,8.651-8,8.651C85.325,33.235,82.075,29.684,82.075,24.584Zm39.85-12.4a11.342,11.342,0,0,0-2.5-.3,6.91,6.91,0,0,0-6.8,4.25l-0.3-3.7h-4.4v24.4h4.7V23.884c0-4.7,2.75-7.4,7.2-7.4h2.1v-4.3Zm12.1,24.652h4.8l8.851-28.6,8.75,28.6h4.7l10.9-36.152h-5l-6.65,22.151a58.386,58.386,0,0,0-1.6,6.5,65.281,65.281,0,0,0-1.65-6.55l-6.8-22.1h-5.3l-6.851,22.1c-0.55,1.9-1.1,3.65-1.7,6.55-0.5-2.75-1-4.65-1.5-6.55l-6.6-22.1h-5.1Zm37.3-12.251c0,7.551,5.4,12.851,12.75,12.851,7.3,0,12.7-5.3,12.7-12.851s-5.4-12.851-12.7-12.851C176.725,11.733,171.325,17.034,171.325,24.584Zm4.75,0c0-5.1,3.25-8.65,8-8.65,4.7,0,8,3.55,8,8.651s-3.3,8.651-8,8.651C179.325,33.235,176.075,29.684,176.075,24.584Zm30.55,12.251V23.884c0-4.75,2.55-7.9,6.95-7.9,3.6,0,5.9,2,5.9,6.95v13.9h4.7V21.884c0-6.25-2.95-10.2-9.4-10.2a9.078,9.078,0,0,0-8.1,4.45l-0.5-3.75h-4.25V36.835h4.7Zm34.1,0.6c3.9,0,7.2-1.7,8.8-5.05l0.4,4.45h4.2V0.033h-4.65v16.3a9.354,9.354,0,0,0-8.551-4.65c-7.25,0-11.6,5.5-11.6,13C229.325,32.135,233.625,37.435,240.725,37.435Zm0.95-4.25c-4.8,0-7.6-3.6-7.6-8.651,0-5,2.8-8.6,7.6-8.6s7.751,3.6,7.751,8.6C249.426,29.634,246.476,33.185,241.675,33.185Zm29.8,4.25c6.051,0,10.151-2.95,11.351-8.2h-4.4c-0.8,2.8-3.2,4.3-6.851,4.3-4.65,0-7.35-2.85-7.7-8l18.9-.05v-1.75c0-7.251-4.55-12.051-11.5-12.051-7.1,0-11.95,5.3-11.95,12.951C259.325,32.234,264.275,37.435,271.475,37.435Zm-0.2-21.8c4.15,0,6.8,2.7,6.8,6.75h-14.1C264.575,18.084,267.175,15.634,271.275,15.634Zm30.65-3.45a11.342,11.342,0,0,0-2.5-.3,6.91,6.91,0,0,0-6.8,4.25l-0.3-3.7h-4.4v24.4h4.7V23.884c0-4.7,2.75-7.4,7.2-7.4h2.1v-4.3Z" transform="translate(0 -0.031)"/>
</svg>
