<svg xmlns="http://www.w3.org/2000/svg" width="78.719" height="62" viewBox="0 0 78.719 62">
  <defs>
    <style>
      .cls-1 {
        fill: #cdbdf1;
        fill-rule: evenodd;
      }
    </style>
  </defs>
  <path class="cls-1" d="M38.189,54.858A23.263,23.263,0,0,0,43.2,60.77a8.1,8.1,0,0,0,7.318,1.562,11.018,11.018,0,0,0,3.958-2.824c7.2-7.147,12.607-15.869,17.94-24.5,2.869-4.644,5.8-9.448,6.649-14.84a7.8,7.8,0,0,0-.053-3.344c-0.573-2.007-2.361-3.4-4.121-4.523C67.164,7.371,58.078,4.95,49,3.681S30.72,2.223,21.59,1.377C16.768,0.93,11.915.3,7.1,0.831a9.7,9.7,0,0,0-4.726,1.52C-3.031,6.3,4.825,10.829,7.5,13.518a133.465,133.465,0,0,1,11.123,12.84C25.66,35.495,31.786,45.281,38.189,54.858Z" transform="translate(-0.5 -0.656)"/>
</svg>
