<svg xmlns="http://www.w3.org/2000/svg" width="111.875" height="84.344" viewBox="0 0 111.875 84.344">
  <defs>
    <style>
      .cls-1 {
        fill: #ffc900;
        fill-rule: evenodd;
      }
    </style>
  </defs>
  <path class="cls-1" d="M0.26,28.595a30.413,30.413,0,0,1,8.8-22.084C14.768,0.784,24.5-1.453,31.238,3.037c3.555,2.368,5.825,6.157,8.306,9.62s5.571,6.893,9.738,7.872c5.334,1.252,10.6-1.83,15.927-3.119C70.2,16.2,76.57,17.276,78.576,21.964c0.5,1.163.669,2.438,1.092,3.63,1.65,4.648,6.712,7.153,11.508,8.429s9.952,1.872,14.037,4.674c5.754,3.946,8.033,11.768,6.458,18.53s-6.466,12.43-12.324,16.222S86.7,79.355,79.906,81C69.4,83.556,58.5,85.575,47.632,84.888a40.572,40.572,0,0,1-21.827-7.752c-6.66-5.017-10.72-12.457-15.446-19.126C4.465,49.692.25,38.955,0.26,28.595Z" transform="translate(-0.25 -0.656)"/>
</svg>
