<svg xmlns="http://www.w3.org/2000/svg" width="76" height="76" viewBox="0 0 76 76">
  <defs>
    <style>
      .cls-1 {
        fill: #fff;
        stroke: #000;
        stroke-linejoin: round;
        stroke-width: 2px;
        fill-rule: evenodd;
      }
    </style>
  </defs>
  <path class="cls-1" d="M59.079,2.93s-0.627,1.379.083,4.712l0,0.007A34.949,34.949,0,0,0,62.682,16.6l0,0.005a91.745,91.745,0,0,0,7.908,12.1c0.567,0.752,1.159,1.524,1.784,2.312,0.438,0.555.888,1.117,1.355,1.694-3.324,2.136-10.768,7.492-22.248,18.854S34.567,70.316,32.4,73.618c-0.572-.474-1.128-0.931-1.68-1.373-0.782-.633-1.548-1.232-2.294-1.808C9.4,55.733,2.768,58.655,2.768,58.655,3.894,54.609,8.823,50.3,14.447,52.38c-0.8-1.407-.18-6.245,3.291-7.328A4.985,4.985,0,0,1,22.3,46.23a1.586,1.586,0,0,0-2.068.873,2.336,2.336,0,0,0,.5,2.351,4.622,4.622,0,0,0,2.148,1.269,9.4,9.4,0,0,0,9.258-2.562c2.159-2.136,3.887-5.017,1.718-7.635a3.181,3.181,0,0,0-2.252-1.267,2.259,2.259,0,0,0-1.36,4.117,4.952,4.952,0,0,1-4.327-3.5,4.664,4.664,0,0,1,1.783-5.087c-5.338-4.148-3.559-10.845-3.559-10.845s6.716-1.709,10.807,3.673a4.661,4.661,0,0,1,5.105-1.729,4.948,4.948,0,0,1,3.454,4.363,2.259,2.259,0,0,0-4.131,1.317,3.19,3.19,0,0,0,1.243,2.265c2.595,2.2,5.494.5,7.654-1.64a9.4,9.4,0,0,0,2.657-9.229A4.6,4.6,0,0,0,49.69,20.8a2.336,2.336,0,0,0-2.346-.526,1.586,1.586,0,0,0-.894,2.059,4.983,4.983,0,0,1-1.129-4.578c1.119-3.459,5.963-4.03,7.362-3.214C50.664,8.9,55.021,4.014,59.079,2.93Z"/>
</svg>
