<svg xmlns="http://www.w3.org/2000/svg" width="70" height="74" viewBox="0 0 70 74">
  <defs>
    <style>
      .cls-1 {
        fill: #fff;
        stroke: #000;
        stroke-linejoin: round;
        stroke-width: 2px;
        fill-rule: evenodd;
      }
    </style>
  </defs>
  <path class="cls-1" d="M56.569,29C47.426,27.8,46.7,27.645,46.3,27.245c-0.368-.375-0.559-1.051-2.847-15.023-0.671-4.1-1.36-8.3-1.905-11.367A182.355,182.355,0,0,0,28.031,24.7a0.921,0.921,0,0,1-.064.112l-2.48,3.635a0.82,0.82,0,0,1-.644.356L0,29.8a50.6,50.6,0,0,0,8.9,6.984c3.85,2.585,7.831,5.258,10.7,9.026a4.625,4.625,0,0,1,1.1,2.416,5.16,5.16,0,0,1-1.206,3.207,66.334,66.334,0,0,0-7.669,15.362,64.77,64.77,0,0,0,19.9-13.772,0.82,0.82,0,0,1,.585-0.245,0.775,0.775,0,0,1,.124.009,0.818,0.818,0,0,1,.605.436A135.182,135.182,0,0,0,46.154,74c2.971-15.78,4.79-25.11,5.288-26.117,0.476-.962,2.986-3.218,7.38-7.121,3.813-3.387,8.074-7.171,10.6-9.936C65.869,30.224,60.962,29.578,56.569,29Z"/>
</svg>
