<svg xmlns="http://www.w3.org/2000/svg" width="84" height="62" viewBox="0 0 84 62">
  <defs>
    <style>
      .cls-1 {
        fill: #fff;
        stroke: #000;
        stroke-linejoin: round;
        stroke-width: 2px;
        fill-rule: evenodd;
      }
    </style>
  </defs>
  <path class="cls-1" d="M10.431,44.643A8.745,8.745,0,0,0,6.942,47.8a1.735,1.735,0,0,0-.253,1.479c0.846,3.5,4.045,4.859,7.163,3.043a8.311,8.311,0,0,0,4.032-4.944c0.567-2,.9-4.059,1.323-6.1,0.537-2.614.958-5.256,1.609-7.842a15.893,15.893,0,0,1,2.9-5.658,7.943,7.943,0,0,1,5.371-3.156c1.568-.236,3.141-0.487,4.678-0.869a8.737,8.737,0,0,0,5.05-3.494c0.545-.753,1.1-1.5,1.587-2.295,2.753-4.5,6.862-6.118,11.946-5.649a42.225,42.225,0,0,1,8.3,2.018c2.272,0.687,4.559,1.347,6.874,1.868,3.123,0.7,5.588-.587,7.607-2.889a3.662,3.662,0,0,0,.392-4.749c-0.1-.174-0.214-0.346-0.327-0.515-1.193-1.785-2.113-2.1-4.14-1.291a22.646,22.646,0,0,0-2.231,1.16c-0.19.1-.366,0.228-0.606,0.379,0.624-3.592,4.441-7.352,9.039-5.005a7.524,7.524,0,0,1,3.968,5.685,14.451,14.451,0,0,1-1.608,9.007c-2.087,4.382-5.636,7.2-9.94,9.185a46.372,46.372,0,0,1-15.139,3.707,68.637,68.637,0,0,1-11.076.2,1.127,1.127,0,0,0-1.293.74A144.726,144.726,0,0,1,34.08,46.539,29.781,29.781,0,0,1,21.294,57.834a15.274,15.274,0,0,1-10.341,1.223A12.935,12.935,0,0,1,4.5,55.5a7.356,7.356,0,0,1-1.072-8.684,4.737,4.737,0,0,1,4.356-2.658,25.942,25.942,0,0,1,2.656.243Z"/>
</svg>
