<svg xmlns="http://www.w3.org/2000/svg" width="93.094" height="90.563" viewBox="0 0 93.094 90.563">
  <defs>
    <style>
      .cls-1 {
        fill: #c5d92d;
        fill-rule: evenodd;
      }
    </style>
  </defs>
  <path class="cls-1" d="M1.532,41.581c-3.543,7.16,1.08,17.727,9.076,18.039,3.3,0.128,6.427-1.351,9.681-1.9S27.558,58,28.81,61.047a9.069,9.069,0,0,1,.2,4.692c-0.869,6.243-2.056,12.91.641,18.608s11.254,8.912,15.425,4.18c2.263-2.567,2.361-6.3,3.068-9.645s2.883-7.063,6.309-7.057c1.86,0,3.511,1.144,4.938,2.335C65.611,79.347,71.971,86.974,79.9,85.3c5.521-1.162,9.214-7.139,8.759-12.752s-4.385-10.547-9.3-13.3c-1.537-.861-3.292-1.659-4.049-3.248-0.988-2.072.243-4.616,2.059-6.024s4.1-2.03,6.2-2.956c4.907-2.162,9.152-6.522,9.786-11.838s-3.381-11.147-8.744-11.293c-3.35-.091-6.363,1.835-9.431,3.18s-7,2.012-9.5-.217c-2.61-2.331-2.226-6.4-2.343-9.89-0.157-4.7-1.728-9.492-5.057-12.82S49.716-.766,45.319.924c-4.158,1.6-6.911,5.783-7.814,10.137-1.444,6.957,4.177,14.789,2.9,20.719-1.115,5.2-4.864,3.132-9.512,2.033C20.632,31.386,7.216,30.094,1.532,41.581Z" transform="translate(-0.344 -0.25)"/>
</svg>
